<mxfile host="Electron" modified="2024-10-08T19:05:32.594Z" agent="Mozilla/5.0 (Windows NT 10.0; Win64; x64) AppleWebKit/537.36 (KHTML, like Gecko) draw.io/24.5.1 Chrome/124.0.6367.207 Electron/30.0.6 Safari/537.36" etag="iVN6-eRt0fjIUliKXgDS" version="24.5.1" type="device">
  <diagram name="Page-1" id="RV95cGNMWoUkyUI2JAUc">
    <mxGraphModel dx="3835" dy="3235" grid="1" gridSize="10" guides="1" tooltips="1" connect="1" arrows="1" fold="1" page="1" pageScale="1" pageWidth="850" pageHeight="1100" math="0" shadow="0">
      <root>
        <mxCell id="0" />
        <mxCell id="1" parent="0" />
        <mxCell id="H1RUv48A3EKDH-307BTt-30" value="Provide Data for Trip Management" style="curved=1;startArrow=none;endArrow=block;exitX=-0.0035128147482014387;exitY=0.7550997607478427;entryX=-0.003400404676258993;entryY=0.4191317873726072;rounded=0;" parent="1" edge="1">
          <mxGeometry relative="1" as="geometry">
            <Array as="points">
              <mxPoint x="162" y="217" />
              <mxPoint x="770" y="280" />
            </Array>
            <mxPoint x="506" y="173.6128809549407" as="sourcePoint" />
          </mxGeometry>
        </mxCell>
        <mxCell id="M2ij3ocT6QxlcTuBAu7P-14" value="Store Data" style="curved=1;startArrow=none;endArrow=block;exitX=0.00334419964028777;exitY=0.7749839824154517;entryX=0.001171875;entryY=0.20409987173934163;rounded=0;" parent="1" edge="1">
          <mxGeometry relative="1" as="geometry">
            <Array as="points">
              <mxPoint x="140" y="782" />
              <mxPoint x="140" y="885" />
            </Array>
            <mxPoint x="453" y="739.4124093540772" as="sourcePoint" />
          </mxGeometry>
        </mxCell>
        <mxCell id="M2ij3ocT6QxlcTuBAu7P-59" value="Store Data" style="curved=1;startArrow=none;endArrow=block;exitX=0.00334419964028777;exitY=0.7749839824154517;entryX=0.001171875;entryY=0.20409987173934163;rounded=0;" parent="1" edge="1">
          <mxGeometry relative="1" as="geometry">
            <Array as="points">
              <mxPoint x="110" y="1142" />
              <mxPoint x="110" y="1245" />
            </Array>
            <mxPoint x="423" y="1099.4124093540772" as="sourcePoint" />
          </mxGeometry>
        </mxCell>
        <mxCell id="M2ij3ocT6QxlcTuBAu7P-189" style="edgeStyle=orthogonalEdgeStyle;rounded=0;orthogonalLoop=1;jettySize=auto;html=1;entryX=0.5;entryY=0;entryDx=0;entryDy=0;exitX=0.5;exitY=1;exitDx=0;exitDy=0;" parent="1" source="WmcGIacN-lfC2q7B9svm-21" target="yNb9S5Wmm-ckGJz4ilVf-4" edge="1">
          <mxGeometry relative="1" as="geometry">
            <mxPoint x="945" y="500" as="targetPoint" />
            <mxPoint x="875.0000000000005" y="350" as="sourcePoint" />
          </mxGeometry>
        </mxCell>
        <mxCell id="M2ij3ocT6QxlcTuBAu7P-177" value="" style="endArrow=classic;html=1;rounded=0;exitX=0;exitY=0.5;exitDx=0;exitDy=0;entryX=1;entryY=0.25;entryDx=0;entryDy=0;" parent="1" source="yNb9S5Wmm-ckGJz4ilVf-4" target="HXBAMNN_HPZOuhgtfxqq-10" edge="1">
          <mxGeometry width="50" height="50" relative="1" as="geometry">
            <mxPoint x="850" y="540" as="sourcePoint" />
            <mxPoint x="498" y="550" as="targetPoint" />
          </mxGeometry>
        </mxCell>
        <mxCell id="1zcFIMNOy2nfIteeYYry-50" value="&lt;span style=&quot;font-size: 12px; font-weight: 700; text-wrap: wrap;&quot;&gt;Send E-Jets Data&lt;/span&gt;" style="edgeLabel;html=1;align=center;verticalAlign=middle;resizable=0;points=[];labelBackgroundColor=none;" parent="M2ij3ocT6QxlcTuBAu7P-177" vertex="1" connectable="0">
          <mxGeometry x="0.1032" y="1" relative="1" as="geometry">
            <mxPoint as="offset" />
          </mxGeometry>
        </mxCell>
        <mxCell id="M2ij3ocT6QxlcTuBAu7P-181" value="" style="endArrow=classic;html=1;rounded=0;exitX=1;exitY=1;exitDx=0;exitDy=0;entryX=0.75;entryY=0;entryDx=0;entryDy=0;" parent="1" source="HXBAMNN_HPZOuhgtfxqq-10" target="HXBAMNN_HPZOuhgtfxqq-6" edge="1">
          <mxGeometry width="50" height="50" relative="1" as="geometry">
            <mxPoint x="476.9749999999999" y="599.6999999999998" as="sourcePoint" />
            <mxPoint x="715" y="800" as="targetPoint" />
          </mxGeometry>
        </mxCell>
        <mxCell id="M2ij3ocT6QxlcTuBAu7P-182" value="&lt;font style=&quot;font-size: 14px;&quot;&gt;Assign Job&lt;/font&gt;" style="edgeLabel;html=1;align=center;verticalAlign=middle;resizable=0;points=[];fontStyle=1;labelBackgroundColor=none;" parent="M2ij3ocT6QxlcTuBAu7P-181" vertex="1" connectable="0">
          <mxGeometry x="0.1998" y="2" relative="1" as="geometry">
            <mxPoint x="-1" as="offset" />
          </mxGeometry>
        </mxCell>
        <mxCell id="M2ij3ocT6QxlcTuBAu7P-185" value="" style="curved=1;endArrow=classic;html=1;rounded=0;exitX=0;exitY=0.25;exitDx=0;exitDy=0;entryX=1;entryY=1;entryDx=0;entryDy=0;" parent="1" source="yNb9S5Wmm-ckGJz4ilVf-5" target="HXBAMNN_HPZOuhgtfxqq-10" edge="1">
          <mxGeometry width="50" height="50" relative="1" as="geometry">
            <mxPoint x="1120" y="820" as="sourcePoint" />
            <mxPoint x="476.9749999999999" y="599.6999999999998" as="targetPoint" />
            <Array as="points">
              <mxPoint x="990" y="710" />
              <mxPoint x="940" y="660" />
            </Array>
          </mxGeometry>
        </mxCell>
        <mxCell id="1zcFIMNOy2nfIteeYYry-47" value="&lt;span style=&quot;font-size: 12px; font-weight: 700; text-wrap: wrap;&quot;&gt;Send&amp;nbsp;Job Data&lt;/span&gt;" style="edgeLabel;html=1;align=center;verticalAlign=middle;resizable=0;points=[];labelBackgroundColor=none;" parent="M2ij3ocT6QxlcTuBAu7P-185" vertex="1" connectable="0">
          <mxGeometry x="0.0958" y="6" relative="1" as="geometry">
            <mxPoint as="offset" />
          </mxGeometry>
        </mxCell>
        <mxCell id="M2ij3ocT6QxlcTuBAu7P-190" value="" style="endArrow=classic;html=1;rounded=0;entryX=0;entryY=0.5;entryDx=0;entryDy=0;exitX=1;exitY=0;exitDx=0;exitDy=0;" parent="1" source="HXBAMNN_HPZOuhgtfxqq-10" target="HXBAMNN_HPZOuhgtfxqq-5" edge="1">
          <mxGeometry width="50" height="50" relative="1" as="geometry">
            <mxPoint x="476.9749999999999" y="500.2999999999997" as="sourcePoint" />
            <mxPoint x="750.0000000000005" y="320" as="targetPoint" />
          </mxGeometry>
        </mxCell>
        <mxCell id="M2ij3ocT6QxlcTuBAu7P-191" value="&lt;font style=&quot;font-size: 13px;&quot;&gt;Manage E-Jets&lt;/font&gt;" style="edgeLabel;html=1;align=center;verticalAlign=middle;resizable=0;points=[];fontStyle=1;labelBackgroundColor=none;" parent="M2ij3ocT6QxlcTuBAu7P-190" vertex="1" connectable="0">
          <mxGeometry x="-0.1823" y="1" relative="1" as="geometry">
            <mxPoint as="offset" />
          </mxGeometry>
        </mxCell>
        <mxCell id="M2ij3ocT6QxlcTuBAu7P-196" value="" style="endArrow=classic;html=1;rounded=0;exitX=1;exitY=0.75;exitDx=0;exitDy=0;entryX=0.5;entryY=0;entryDx=0;entryDy=0;" parent="1" source="WmcGIacN-lfC2q7B9svm-9" target="yNb9S5Wmm-ckGJz4ilVf-3" edge="1">
          <mxGeometry width="50" height="50" relative="1" as="geometry">
            <mxPoint x="540" y="-50" as="sourcePoint" />
            <mxPoint x="780" y="40" as="targetPoint" />
          </mxGeometry>
        </mxCell>
        <mxCell id="M2ij3ocT6QxlcTuBAu7P-197" value="" style="endArrow=classic;html=1;rounded=0;exitX=0.5;exitY=0;exitDx=0;exitDy=0;" parent="1" source="HXBAMNN_HPZOuhgtfxqq-10" target="HXBAMNN_HPZOuhgtfxqq-4" edge="1">
          <mxGeometry width="50" height="50" relative="1" as="geometry">
            <mxPoint x="420" y="520" as="sourcePoint" />
            <mxPoint x="409.75" y="-47.77999999999997" as="targetPoint" />
          </mxGeometry>
        </mxCell>
        <mxCell id="M2ij3ocT6QxlcTuBAu7P-198" value="&lt;font style=&quot;font-size: 14px;&quot;&gt;Assign Pilot&lt;/font&gt;" style="edgeLabel;html=1;align=center;verticalAlign=middle;resizable=0;points=[];fontStyle=1;labelBackgroundColor=none;" parent="M2ij3ocT6QxlcTuBAu7P-197" vertex="1" connectable="0">
          <mxGeometry x="0.1604" y="1" relative="1" as="geometry">
            <mxPoint as="offset" />
          </mxGeometry>
        </mxCell>
        <mxCell id="M2ij3ocT6QxlcTuBAu7P-199" value="" style="endArrow=classic;html=1;rounded=0;exitX=0.5;exitY=1;exitDx=0;exitDy=0;entryX=0.5;entryY=0;entryDx=0;entryDy=0;" parent="1" target="HXBAMNN_HPZOuhgtfxqq-10" edge="1" source="yNb9S5Wmm-ckGJz4ilVf-3">
          <mxGeometry width="50" height="50" relative="1" as="geometry">
            <mxPoint x="760" y="120" as="sourcePoint" />
            <mxPoint x="425.5" y="480" as="targetPoint" />
          </mxGeometry>
        </mxCell>
        <mxCell id="1zcFIMNOy2nfIteeYYry-45" value="&lt;span style=&quot;font-size: 12px; font-weight: 700; text-wrap: wrap;&quot;&gt;Send Pilot Data&lt;/span&gt;" style="edgeLabel;html=1;align=center;verticalAlign=middle;resizable=0;points=[];labelBackgroundColor=none;" parent="M2ij3ocT6QxlcTuBAu7P-199" vertex="1" connectable="0">
          <mxGeometry x="-0.233" relative="1" as="geometry">
            <mxPoint as="offset" />
          </mxGeometry>
        </mxCell>
        <mxCell id="M2ij3ocT6QxlcTuBAu7P-204" value="" style="endArrow=classic;html=1;rounded=0;exitX=0;exitY=0;exitDx=0;exitDy=0;entryX=0.5;entryY=1;entryDx=0;entryDy=0;" parent="1" source="HXBAMNN_HPZOuhgtfxqq-10" target="HXBAMNN_HPZOuhgtfxqq-3" edge="1">
          <mxGeometry width="50" height="50" relative="1" as="geometry">
            <mxPoint x="374.02499999999986" y="500.2999999999997" as="sourcePoint" />
            <mxPoint x="120" y="350" as="targetPoint" />
          </mxGeometry>
        </mxCell>
        <mxCell id="M2ij3ocT6QxlcTuBAu7P-207" value="&lt;font style=&quot;font-size: 14px;&quot;&gt;Viwe Colonist&lt;/font&gt;&lt;div style=&quot;font-size: 14px;&quot;&gt;&lt;font style=&quot;font-size: 14px;&quot;&gt;Details&lt;/font&gt;&lt;/div&gt;" style="edgeLabel;html=1;align=center;verticalAlign=middle;resizable=0;points=[];fontStyle=1;labelBackgroundColor=none;" parent="M2ij3ocT6QxlcTuBAu7P-204" vertex="1" connectable="0">
          <mxGeometry x="0.1655" y="-4" relative="1" as="geometry">
            <mxPoint as="offset" />
          </mxGeometry>
        </mxCell>
        <mxCell id="M2ij3ocT6QxlcTuBAu7P-205" value="" style="endArrow=classic;html=1;rounded=0;exitX=0;exitY=0;exitDx=0;exitDy=0;entryX=0.5;entryY=1;entryDx=0;entryDy=0;" parent="1" source="HXBAMNN_HPZOuhgtfxqq-10" target="HXBAMNN_HPZOuhgtfxqq-2" edge="1">
          <mxGeometry width="50" height="50" relative="1" as="geometry">
            <mxPoint x="374.02499999999986" y="500.2999999999997" as="sourcePoint" />
            <mxPoint x="-200" y="360" as="targetPoint" />
          </mxGeometry>
        </mxCell>
        <mxCell id="M2ij3ocT6QxlcTuBAu7P-208" value="&lt;font style=&quot;font-size: 14px;&quot;&gt;Update Colonists&amp;nbsp;&lt;/font&gt;&lt;div style=&quot;font-size: 14px;&quot;&gt;&lt;font style=&quot;font-size: 14px;&quot;&gt;Information&lt;/font&gt;&lt;/div&gt;" style="edgeLabel;html=1;align=center;verticalAlign=middle;resizable=0;points=[];fontStyle=1;labelBackgroundColor=none;" parent="M2ij3ocT6QxlcTuBAu7P-205" vertex="1" connectable="0">
          <mxGeometry x="0.1534" y="6" relative="1" as="geometry">
            <mxPoint y="-1" as="offset" />
          </mxGeometry>
        </mxCell>
        <mxCell id="M2ij3ocT6QxlcTuBAu7P-206" value="" style="endArrow=classic;html=1;rounded=0;exitX=0;exitY=0;exitDx=0;exitDy=0;entryX=0.5;entryY=1;entryDx=0;entryDy=0;" parent="1" source="HXBAMNN_HPZOuhgtfxqq-10" target="HXBAMNN_HPZOuhgtfxqq-1" edge="1">
          <mxGeometry width="50" height="50" relative="1" as="geometry">
            <mxPoint x="374.02499999999986" y="500.2999999999997" as="sourcePoint" />
            <mxPoint x="-480" y="360" as="targetPoint" />
            <Array as="points">
              <mxPoint x="-110" y="440" />
            </Array>
          </mxGeometry>
        </mxCell>
        <mxCell id="M2ij3ocT6QxlcTuBAu7P-209" value="&lt;font style=&quot;font-size: 14px;&quot;&gt;Submit New&amp;nbsp;&lt;/font&gt;&lt;div style=&quot;font-size: 14px;&quot;&gt;&lt;font style=&quot;font-size: 14px;&quot;&gt;Colonist&lt;/font&gt;&lt;/div&gt;" style="edgeLabel;html=1;align=center;verticalAlign=middle;resizable=0;points=[];fontStyle=1;labelBackgroundColor=none;" parent="M2ij3ocT6QxlcTuBAu7P-206" vertex="1" connectable="0">
          <mxGeometry x="0.1599" y="1" relative="1" as="geometry">
            <mxPoint as="offset" />
          </mxGeometry>
        </mxCell>
        <mxCell id="M2ij3ocT6QxlcTuBAu7P-217" value="" style="endArrow=classic;html=1;rounded=0;entryX=0.25;entryY=1;entryDx=0;entryDy=0;exitX=0.5;exitY=0;exitDx=0;exitDy=0;" parent="1" source="WmcGIacN-lfC2q7B9svm-1" target="yNb9S5Wmm-ckGJz4ilVf-2" edge="1">
          <mxGeometry width="50" height="50" relative="1" as="geometry">
            <mxPoint x="-515" y="240" as="sourcePoint" />
            <mxPoint x="-311.8226996080755" y="-81.68463007680475" as="targetPoint" />
          </mxGeometry>
        </mxCell>
        <mxCell id="M2ij3ocT6QxlcTuBAu7P-221" value="" style="endArrow=classic;html=1;rounded=0;exitX=0.5;exitY=0;exitDx=0;exitDy=0;entryX=1;entryY=1;entryDx=0;entryDy=0;" parent="1" source="HXBAMNN_HPZOuhgtfxqq-3" target="yNb9S5Wmm-ckGJz4ilVf-2" edge="1">
          <mxGeometry width="50" height="50" relative="1" as="geometry">
            <mxPoint x="95" y="240" as="sourcePoint" />
            <mxPoint x="-128.17730039192452" y="-81.68463007680498" as="targetPoint" />
          </mxGeometry>
        </mxCell>
        <mxCell id="1zcFIMNOy2nfIteeYYry-40" value="&lt;span style=&quot;font-weight: 700; text-wrap: wrap; font-size: 14px;&quot;&gt;Retreve&amp;nbsp;&lt;/span&gt;&lt;div style=&quot;font-size: 12px; font-weight: 700; text-wrap: wrap;&quot;&gt;&lt;span style=&quot;font-size: 14px;&quot;&gt;Data&lt;/span&gt;&lt;/div&gt;" style="edgeLabel;html=1;align=center;verticalAlign=middle;resizable=0;points=[];labelBackgroundColor=none;" parent="M2ij3ocT6QxlcTuBAu7P-221" vertex="1" connectable="0">
          <mxGeometry x="0.2186" y="-1" relative="1" as="geometry">
            <mxPoint as="offset" />
          </mxGeometry>
        </mxCell>
        <mxCell id="M2ij3ocT6QxlcTuBAu7P-222" value="" style="curved=1;endArrow=classic;html=1;rounded=0;entryX=0;entryY=0.5;entryDx=0;entryDy=0;exitX=0;exitY=0.75;exitDx=0;exitDy=0;" parent="1" source="yNb9S5Wmm-ckGJz4ilVf-2" target="HXBAMNN_HPZOuhgtfxqq-10" edge="1">
          <mxGeometry width="50" height="50" relative="1" as="geometry">
            <mxPoint x="-350" y="-110" as="sourcePoint" />
            <mxPoint x="357.92999999999984" y="565.9599999999996" as="targetPoint" />
            <Array as="points">
              <mxPoint x="-720" y="60" />
              <mxPoint x="-580" y="620" />
            </Array>
          </mxGeometry>
        </mxCell>
        <mxCell id="M2ij3ocT6QxlcTuBAu7P-223" value="&lt;b&gt;&lt;font style=&quot;font-size: 14px;&quot;&gt;Send Colonist Data&lt;/font&gt;&lt;/b&gt;" style="edgeLabel;html=1;align=center;verticalAlign=middle;resizable=0;points=[];labelBackgroundColor=none;" parent="M2ij3ocT6QxlcTuBAu7P-222" vertex="1" connectable="0">
          <mxGeometry x="-0.1393" y="60" relative="1" as="geometry">
            <mxPoint y="1" as="offset" />
          </mxGeometry>
        </mxCell>
        <mxCell id="M2ij3ocT6QxlcTuBAu7P-228" value="" style="endArrow=classic;html=1;rounded=0;entryX=1.005;entryY=0.571;entryDx=0;entryDy=0;exitX=0;exitY=1;exitDx=0;exitDy=0;entryPerimeter=0;" parent="1" source="HXBAMNN_HPZOuhgtfxqq-10" target="HXBAMNN_HPZOuhgtfxqq-7" edge="1">
          <mxGeometry width="50" height="50" relative="1" as="geometry">
            <mxPoint x="374.02499999999986" y="599.6999999999998" as="sourcePoint" />
            <mxPoint x="-560" y="710" as="targetPoint" />
          </mxGeometry>
        </mxCell>
        <mxCell id="M2ij3ocT6QxlcTuBAu7P-229" value="&lt;b&gt;&lt;font style=&quot;font-size: 15px;&quot;&gt;Create New Trip&lt;/font&gt;&lt;/b&gt;" style="text;html=1;align=center;verticalAlign=middle;resizable=0;points=[];autosize=1;strokeColor=none;fillColor=none;labelBackgroundColor=none;" parent="1" vertex="1">
          <mxGeometry x="-240" y="638" width="140" height="30" as="geometry" />
        </mxCell>
        <mxCell id="M2ij3ocT6QxlcTuBAu7P-230" value="" style="endArrow=classic;html=1;rounded=0;entryX=1;entryY=0.5;entryDx=0;entryDy=0;exitX=0;exitY=1;exitDx=0;exitDy=0;" parent="1" source="HXBAMNN_HPZOuhgtfxqq-10" target="HXBAMNN_HPZOuhgtfxqq-8" edge="1">
          <mxGeometry width="50" height="50" relative="1" as="geometry">
            <mxPoint x="374.02499999999986" y="599.6999999999998" as="sourcePoint" />
            <mxPoint x="-210" y="730" as="targetPoint" />
          </mxGeometry>
        </mxCell>
        <mxCell id="M2ij3ocT6QxlcTuBAu7P-231" value="&lt;b&gt;&lt;font style=&quot;font-size: 15px;&quot;&gt;Update Trip Information&lt;/font&gt;&lt;/b&gt;" style="edgeLabel;html=1;align=center;verticalAlign=middle;resizable=0;points=[];labelBackgroundColor=none;" parent="M2ij3ocT6QxlcTuBAu7P-230" vertex="1" connectable="0">
          <mxGeometry x="0.4529" y="1" relative="1" as="geometry">
            <mxPoint as="offset" />
          </mxGeometry>
        </mxCell>
        <mxCell id="M2ij3ocT6QxlcTuBAu7P-232" value="" style="endArrow=classic;html=1;rounded=0;entryX=1;entryY=0.5;entryDx=0;entryDy=0;exitX=0;exitY=1;exitDx=0;exitDy=0;" parent="1" source="HXBAMNN_HPZOuhgtfxqq-10" target="HXBAMNN_HPZOuhgtfxqq-9" edge="1">
          <mxGeometry width="50" height="50" relative="1" as="geometry">
            <mxPoint x="374.02499999999986" y="599.6999999999998" as="sourcePoint" />
            <mxPoint x="60" y="840" as="targetPoint" />
          </mxGeometry>
        </mxCell>
        <mxCell id="M2ij3ocT6QxlcTuBAu7P-233" value="&lt;b&gt;&lt;font style=&quot;font-size: 15px;&quot;&gt;Viwe Trip Details&lt;/font&gt;&lt;/b&gt;" style="edgeLabel;html=1;align=center;verticalAlign=middle;resizable=0;points=[];labelBackgroundColor=none;" parent="M2ij3ocT6QxlcTuBAu7P-232" vertex="1" connectable="0">
          <mxGeometry x="0.1162" y="-2" relative="1" as="geometry">
            <mxPoint as="offset" />
          </mxGeometry>
        </mxCell>
        <mxCell id="M2ij3ocT6QxlcTuBAu7P-243" style="edgeStyle=orthogonalEdgeStyle;rounded=0;orthogonalLoop=1;jettySize=auto;html=1;entryX=0.5;entryY=1;entryDx=0;entryDy=0;" parent="1" source="yNb9S5Wmm-ckGJz4ilVf-6" target="HXBAMNN_HPZOuhgtfxqq-10" edge="1">
          <mxGeometry relative="1" as="geometry">
            <mxPoint x="-460" y="1065" as="sourcePoint" />
            <mxPoint x="425.5" y="620" as="targetPoint" />
          </mxGeometry>
        </mxCell>
        <mxCell id="1zcFIMNOy2nfIteeYYry-32" value="&lt;span style=&quot;font-size: 12px; font-weight: 700; text-wrap: wrap;&quot;&gt;Send Trip Data&lt;/span&gt;" style="edgeLabel;html=1;align=center;verticalAlign=middle;resizable=0;points=[];labelBackgroundColor=none;" parent="M2ij3ocT6QxlcTuBAu7P-243" vertex="1" connectable="0">
          <mxGeometry x="-0.1808" y="2" relative="1" as="geometry">
            <mxPoint as="offset" />
          </mxGeometry>
        </mxCell>
        <mxCell id="1zcFIMNOy2nfIteeYYry-33" value="" style="endArrow=classic;html=1;rounded=0;exitX=0.5;exitY=1;exitDx=0;exitDy=0;entryX=0.25;entryY=0;entryDx=0;entryDy=0;" parent="1" source="WmcGIacN-lfC2q7B9svm-6" target="yNb9S5Wmm-ckGJz4ilVf-6" edge="1">
          <mxGeometry width="50" height="50" relative="1" as="geometry">
            <mxPoint x="-685" y="740" as="sourcePoint" />
            <mxPoint x="-650" y="1030" as="targetPoint" />
          </mxGeometry>
        </mxCell>
        <mxCell id="1zcFIMNOy2nfIteeYYry-35" value="" style="endArrow=classic;html=1;rounded=0;exitX=0.5;exitY=1;exitDx=0;exitDy=0;entryX=0.487;entryY=0.033;entryDx=0;entryDy=0;entryPerimeter=0;" parent="1" source="WmcGIacN-lfC2q7B9svm-16" target="yNb9S5Wmm-ckGJz4ilVf-6" edge="1">
          <mxGeometry width="50" height="50" relative="1" as="geometry">
            <mxPoint x="-397.5" y="790" as="sourcePoint" />
            <mxPoint x="-570" y="1020" as="targetPoint" />
          </mxGeometry>
        </mxCell>
        <mxCell id="1zcFIMNOy2nfIteeYYry-37" value="" style="endArrow=classic;html=1;rounded=0;exitX=0;exitY=0.5;exitDx=0;exitDy=0;" parent="1" source="HXBAMNN_HPZOuhgtfxqq-9" edge="1">
          <mxGeometry width="50" height="50" relative="1" as="geometry">
            <mxPoint x="-190" y="870" as="sourcePoint" />
            <mxPoint x="-530" y="1030" as="targetPoint" />
          </mxGeometry>
        </mxCell>
        <mxCell id="1zcFIMNOy2nfIteeYYry-38" value="&lt;span style=&quot;font-size: 12px; font-weight: 700; text-wrap: wrap;&quot;&gt;Retreve Data&lt;/span&gt;" style="edgeLabel;html=1;align=center;verticalAlign=middle;resizable=0;points=[];labelBackgroundColor=none;" parent="1zcFIMNOy2nfIteeYYry-37" vertex="1" connectable="0">
          <mxGeometry x="0.1848" y="2" relative="1" as="geometry">
            <mxPoint x="-1" as="offset" />
          </mxGeometry>
        </mxCell>
        <mxCell id="HXBAMNN_HPZOuhgtfxqq-1" value="&lt;b&gt;&lt;font style=&quot;font-size: 15px;&quot;&gt;Assign Pilot To E-Jet Process&lt;/font&gt;&lt;/b&gt;" style="shape=internalStorage;whiteSpace=wrap;html=1;dx=15;dy=15;rounded=1;arcSize=8;strokeWidth=2;" parent="1" vertex="1">
          <mxGeometry x="-620" y="250" width="250" height="70" as="geometry" />
        </mxCell>
        <mxCell id="HXBAMNN_HPZOuhgtfxqq-2" value="&lt;b&gt;&lt;font style=&quot;font-size: 15px;&quot;&gt;Assign Pilot To E-Jet Process&lt;/font&gt;&lt;/b&gt;" style="shape=internalStorage;whiteSpace=wrap;html=1;dx=15;dy=15;rounded=1;arcSize=8;strokeWidth=2;" parent="1" vertex="1">
          <mxGeometry x="-330" y="250" width="250" height="70" as="geometry" />
        </mxCell>
        <mxCell id="HXBAMNN_HPZOuhgtfxqq-3" value="&lt;b&gt;&lt;font style=&quot;font-size: 15px;&quot;&gt;Assign Pilot To E-Jet Process&lt;/font&gt;&lt;/b&gt;" style="shape=internalStorage;whiteSpace=wrap;html=1;dx=15;dy=15;rounded=1;arcSize=8;strokeWidth=2;" parent="1" vertex="1">
          <mxGeometry x="-30" y="250" width="250" height="70" as="geometry" />
        </mxCell>
        <mxCell id="HXBAMNN_HPZOuhgtfxqq-4" value="&lt;span style=&quot;font-size: 15px; font-weight: 700;&quot;&gt;Assign Pilot To E-Jet Process&lt;/span&gt;" style="shape=internalStorage;whiteSpace=wrap;html=1;dx=15;dy=15;rounded=1;arcSize=8;strokeWidth=2;" parent="1" vertex="1">
          <mxGeometry x="280" y="-130" width="250" height="70" as="geometry" />
        </mxCell>
        <mxCell id="HXBAMNN_HPZOuhgtfxqq-5" value="&lt;span style=&quot;font-size: 15px; font-weight: 700;&quot;&gt;Manage E-Jets Proccess&lt;/span&gt;" style="shape=internalStorage;whiteSpace=wrap;html=1;dx=15;dy=15;rounded=1;arcSize=8;strokeWidth=2;" parent="1" vertex="1">
          <mxGeometry x="770" y="270" width="210" height="70" as="geometry" />
        </mxCell>
        <mxCell id="HXBAMNN_HPZOuhgtfxqq-6" value="&lt;span style=&quot;font-size: 15px; font-weight: 700;&quot;&gt;Assign Jobs To Colonists Process&lt;/span&gt;" style="shape=internalStorage;whiteSpace=wrap;html=1;dx=15;dy=15;rounded=1;arcSize=8;strokeWidth=2;" parent="1" vertex="1">
          <mxGeometry x="520" y="790" width="230" height="70" as="geometry" />
        </mxCell>
        <mxCell id="HXBAMNN_HPZOuhgtfxqq-7" value="&lt;span style=&quot;font-size: 15px;&quot;&gt;Add Trip Process&lt;/span&gt;" style="shape=internalStorage;whiteSpace=wrap;html=1;dx=15;dy=15;rounded=1;arcSize=8;strokeWidth=2;fontStyle=1" parent="1" vertex="1">
          <mxGeometry x="-760" y="660" width="170" height="70" as="geometry" />
        </mxCell>
        <mxCell id="HXBAMNN_HPZOuhgtfxqq-8" value="&lt;span style=&quot;font-size: 15px; font-weight: 700;&quot;&gt;Update Trip Process&lt;/span&gt;" style="shape=internalStorage;whiteSpace=wrap;html=1;dx=15;dy=15;rounded=1;arcSize=8;strokeWidth=2;" parent="1" vertex="1">
          <mxGeometry x="-460" y="710" width="170" height="70" as="geometry" />
        </mxCell>
        <mxCell id="HXBAMNN_HPZOuhgtfxqq-9" value="&lt;span style=&quot;font-size: 15px; font-weight: 700;&quot;&gt;Viwe Trip Details Process&lt;/span&gt;" style="shape=internalStorage;whiteSpace=wrap;html=1;dx=15;dy=15;rounded=1;arcSize=8;strokeWidth=2;" parent="1" vertex="1">
          <mxGeometry x="-180" y="800" width="170" height="70" as="geometry" />
        </mxCell>
        <mxCell id="HXBAMNN_HPZOuhgtfxqq-10" value="&lt;b style=&quot;font-size: 16px;&quot;&gt;Users&lt;/b&gt;" style="rounded=0;whiteSpace=wrap;html=1;" parent="1" vertex="1">
          <mxGeometry x="365" y="530" width="120" height="60" as="geometry" />
        </mxCell>
        <mxCell id="WmcGIacN-lfC2q7B9svm-2" value="" style="endArrow=classic;html=1;rounded=0;entryX=0.5;entryY=1;entryDx=0;entryDy=0;exitX=0.5;exitY=0;exitDx=0;exitDy=0;" parent="1" source="HXBAMNN_HPZOuhgtfxqq-1" target="WmcGIacN-lfC2q7B9svm-1" edge="1">
          <mxGeometry width="50" height="50" relative="1" as="geometry">
            <mxPoint x="-495" y="250" as="sourcePoint" />
            <mxPoint x="-312" y="-82" as="targetPoint" />
          </mxGeometry>
        </mxCell>
        <mxCell id="WmcGIacN-lfC2q7B9svm-1" value="&lt;span style=&quot;font-size: 14px; font-weight: 700;&quot;&gt;Store Data&lt;/span&gt;" style="shape=internalStorage;whiteSpace=wrap;html=1;backgroundOutline=1;dx=25;dy=0;" parent="1" vertex="1">
          <mxGeometry x="-465" y="80" width="135" height="30" as="geometry" />
        </mxCell>
        <mxCell id="WmcGIacN-lfC2q7B9svm-7" value="" style="endArrow=classic;html=1;rounded=0;exitX=0.5;exitY=1;exitDx=0;exitDy=0;entryX=0.5;entryY=0;entryDx=0;entryDy=0;" parent="1" source="HXBAMNN_HPZOuhgtfxqq-7" target="WmcGIacN-lfC2q7B9svm-6" edge="1">
          <mxGeometry width="50" height="50" relative="1" as="geometry">
            <mxPoint x="-675" y="730" as="sourcePoint" />
            <mxPoint x="-650" y="1041" as="targetPoint" />
          </mxGeometry>
        </mxCell>
        <mxCell id="WmcGIacN-lfC2q7B9svm-6" value="&lt;span style=&quot;font-size: 14px; font-weight: 700;&quot;&gt;Store Data&lt;/span&gt;" style="shape=internalStorage;whiteSpace=wrap;html=1;backgroundOutline=1;dx=25;dy=0;" parent="1" vertex="1">
          <mxGeometry x="-720" y="840" width="135" height="30" as="geometry" />
        </mxCell>
        <mxCell id="WmcGIacN-lfC2q7B9svm-10" value="" style="endArrow=classic;html=1;rounded=0;exitX=1;exitY=0.75;exitDx=0;exitDy=0;entryX=0.5;entryY=0;entryDx=0;entryDy=0;" parent="1" source="HXBAMNN_HPZOuhgtfxqq-4" target="WmcGIacN-lfC2q7B9svm-9" edge="1">
          <mxGeometry width="50" height="50" relative="1" as="geometry">
            <mxPoint x="530" y="-77" as="sourcePoint" />
            <mxPoint x="780" y="40" as="targetPoint" />
          </mxGeometry>
        </mxCell>
        <mxCell id="WmcGIacN-lfC2q7B9svm-9" value="&lt;span style=&quot;font-size: 14px; font-weight: 700;&quot;&gt;Store Data&lt;/span&gt;" style="shape=internalStorage;whiteSpace=wrap;html=1;backgroundOutline=1;dx=25;dy=0;" parent="1" vertex="1">
          <mxGeometry x="565" y="-30" width="135" height="30" as="geometry" />
        </mxCell>
        <mxCell id="WmcGIacN-lfC2q7B9svm-12" value="" style="curved=1;endArrow=classic;html=1;rounded=0;entryX=0;entryY=0.5;entryDx=0;entryDy=0;exitX=0.75;exitY=1;exitDx=0;exitDy=0;" parent="1" source="HXBAMNN_HPZOuhgtfxqq-6" target="WmcGIacN-lfC2q7B9svm-11" edge="1">
          <mxGeometry width="50" height="50" relative="1" as="geometry">
            <mxPoint x="690" y="870" as="sourcePoint" />
            <mxPoint x="800" y="940" as="targetPoint" />
            <Array as="points" />
          </mxGeometry>
        </mxCell>
        <mxCell id="WmcGIacN-lfC2q7B9svm-11" value="&lt;span style=&quot;font-weight: 700;&quot;&gt;Update Job Data&lt;/span&gt;" style="shape=internalStorage;whiteSpace=wrap;html=1;backgroundOutline=1;dx=25;dy=0;" parent="1" vertex="1">
          <mxGeometry x="840" y="900" width="160" height="30" as="geometry" />
        </mxCell>
        <mxCell id="WmcGIacN-lfC2q7B9svm-13" value="" style="curved=1;endArrow=classic;html=1;rounded=0;entryX=0;entryY=0.75;entryDx=0;entryDy=0;exitX=1;exitY=0.5;exitDx=0;exitDy=0;" parent="1" source="WmcGIacN-lfC2q7B9svm-11" target="yNb9S5Wmm-ckGJz4ilVf-5" edge="1">
          <mxGeometry width="50" height="50" relative="1" as="geometry">
            <mxPoint x="930" y="930" as="sourcePoint" />
            <mxPoint x="1136.1999999999998" y="849.7600000000002" as="targetPoint" />
            <Array as="points" />
          </mxGeometry>
        </mxCell>
        <mxCell id="WmcGIacN-lfC2q7B9svm-17" value="" style="endArrow=classic;html=1;rounded=0;entryX=0.5;entryY=0;entryDx=0;entryDy=0;exitX=0.5;exitY=1;exitDx=0;exitDy=0;" parent="1" source="HXBAMNN_HPZOuhgtfxqq-8" target="WmcGIacN-lfC2q7B9svm-16" edge="1">
          <mxGeometry width="50" height="50" relative="1" as="geometry">
            <mxPoint x="-375" y="780" as="sourcePoint" />
            <mxPoint x="-575" y="1030" as="targetPoint" />
          </mxGeometry>
        </mxCell>
        <mxCell id="WmcGIacN-lfC2q7B9svm-16" value="&lt;span style=&quot;font-weight: 700;&quot;&gt;Update Data&lt;/span&gt;" style="shape=internalStorage;whiteSpace=wrap;html=1;backgroundOutline=1;dx=25;dy=0;" parent="1" vertex="1">
          <mxGeometry x="-530" y="890" width="135" height="30" as="geometry" />
        </mxCell>
        <mxCell id="WmcGIacN-lfC2q7B9svm-18" value="&lt;span style=&quot;font-weight: 700;&quot;&gt;Update Data&lt;/span&gt;" style="shape=internalStorage;whiteSpace=wrap;html=1;backgroundOutline=1;dx=25;dy=0;" parent="1" vertex="1">
          <mxGeometry x="-287.5" y="90" width="137.5" height="30" as="geometry" />
        </mxCell>
        <mxCell id="WmcGIacN-lfC2q7B9svm-19" value="" style="endArrow=classic;html=1;rounded=0;exitX=0.5;exitY=0;exitDx=0;exitDy=0;entryX=0.5;entryY=1;entryDx=0;entryDy=0;" parent="1" source="HXBAMNN_HPZOuhgtfxqq-2" target="WmcGIacN-lfC2q7B9svm-18" edge="1">
          <mxGeometry width="50" height="50" relative="1" as="geometry">
            <mxPoint x="-280" y="210" as="sourcePoint" />
            <mxPoint x="-230" y="160" as="targetPoint" />
          </mxGeometry>
        </mxCell>
        <mxCell id="WmcGIacN-lfC2q7B9svm-20" value="" style="endArrow=classic;html=1;rounded=0;exitX=0.5;exitY=0;exitDx=0;exitDy=0;entryX=0.5;entryY=1;entryDx=0;entryDy=0;" parent="1" source="WmcGIacN-lfC2q7B9svm-18" target="yNb9S5Wmm-ckGJz4ilVf-2" edge="1">
          <mxGeometry width="50" height="50" relative="1" as="geometry">
            <mxPoint x="-198" y="70" as="sourcePoint" />
            <mxPoint x="-220" y="-70" as="targetPoint" />
          </mxGeometry>
        </mxCell>
        <mxCell id="WmcGIacN-lfC2q7B9svm-22" value="" style="edgeStyle=orthogonalEdgeStyle;rounded=0;orthogonalLoop=1;jettySize=auto;html=1;entryX=0.5;entryY=0;entryDx=0;entryDy=0;exitX=0.5;exitY=1;exitDx=0;exitDy=0;" parent="1" source="HXBAMNN_HPZOuhgtfxqq-5" target="WmcGIacN-lfC2q7B9svm-21" edge="1">
          <mxGeometry relative="1" as="geometry">
            <mxPoint x="945" y="500" as="targetPoint" />
            <mxPoint x="875" y="340" as="sourcePoint" />
          </mxGeometry>
        </mxCell>
        <mxCell id="WmcGIacN-lfC2q7B9svm-21" value="&lt;span style=&quot;font-weight: 700;&quot;&gt;Update E-Jets Data&lt;/span&gt;" style="shape=internalStorage;whiteSpace=wrap;html=1;backgroundOutline=1;dx=25;dy=0;" parent="1" vertex="1">
          <mxGeometry x="770" y="390" width="170" height="30" as="geometry" />
        </mxCell>
        <mxCell id="yNb9S5Wmm-ckGJz4ilVf-2" value="&lt;span style=&quot;font-size: 15px; font-weight: 700;&quot;&gt;Colonist Recode&lt;/span&gt;" style="rounded=0;whiteSpace=wrap;html=1;" vertex="1" parent="1">
          <mxGeometry x="-320" y="-160" width="180" height="60" as="geometry" />
        </mxCell>
        <mxCell id="yNb9S5Wmm-ckGJz4ilVf-3" value="&lt;span style=&quot;font-size: 15px; font-weight: 700;&quot;&gt;Pilot Recodes&lt;/span&gt;" style="rounded=0;whiteSpace=wrap;html=1;" vertex="1" parent="1">
          <mxGeometry x="720" y="50" width="180" height="60" as="geometry" />
        </mxCell>
        <mxCell id="yNb9S5Wmm-ckGJz4ilVf-4" value="&lt;span style=&quot;font-size: 15px; font-weight: 700;&quot;&gt;E-Jets Recodes&lt;/span&gt;" style="rounded=0;whiteSpace=wrap;html=1;" vertex="1" parent="1">
          <mxGeometry x="870" y="510" width="180" height="60" as="geometry" />
        </mxCell>
        <mxCell id="yNb9S5Wmm-ckGJz4ilVf-5" value="&lt;span style=&quot;font-size: 15px; font-weight: 700;&quot;&gt;Jobs Recodes&lt;/span&gt;" style="rounded=0;whiteSpace=wrap;html=1;" vertex="1" parent="1">
          <mxGeometry x="1140" y="810" width="180" height="60" as="geometry" />
        </mxCell>
        <mxCell id="yNb9S5Wmm-ckGJz4ilVf-6" value="&lt;span style=&quot;font-size: 15px; font-weight: 700;&quot;&gt;Trip Recode&lt;/span&gt;" style="rounded=0;whiteSpace=wrap;html=1;" vertex="1" parent="1">
          <mxGeometry x="-670" y="1030" width="180" height="60" as="geometry" />
        </mxCell>
      </root>
    </mxGraphModel>
  </diagram>
</mxfile>
